# xmcd
#
# Track frame offsets: 
#        150
#        10436
#        20509
#        30536
#        42973
#        53279
#        64283
#        74618
#        84317
#        94979
#        108049
#        118838
#        129475
#        140009
#        152700
#        164221
#        175210
#        186209
#        198329
#        211461
#        222729
#        234455
#        246940
#        258718
#        270339
#        283074
#        295293
#        308081
#
# Disc length: 4267 seconds
#
# Revision: 0
# Processed by: cddbd v1.5.2PL0 Copyright (c) Steve Scherf et al.
# Submitted via: ExactAudioCopy v0.95a5
#
DISCID=ad10a91c
DTITLE=Lightnin' Hopkins - Collected Works, Vol. 2, Disc B
DYEAR=2007
DGENRE=Blues
TTITLE0=Moving On Out Boogie
TTITLE1=Sick Feeling Blues
TTITLE2=Hopkins Sky Hop
TTITLE3=Evil Hearted Woman
TTITLE4=Don't Need No Job
TTITLE5=Blues For My Cookie
TTITLE6=Had a Gal Named Sal
TTITLE7=They Wonder Who I Am
TTITLE8=Nothin' But The Blues
TTITLE9=That's Alright Baby
TTITLE10=Finally Met My Baby
TTITLE11=My Little Kewpie Doll
TTITLE12=Wonder What Is Wrong With Me
TTITLE13=Late In The Evening
TTITLE14=Lightnin' Jump
TTITLE15=Leavin' Blues
TTITLE16=Moanin' Blues
TTITLE17=Walkin' The Streets
TTITLE18=Mussy Headed Woman
TTITLE19=L.C. Williams - Trying, Trying
TTITLE20=L.C. Williams - You'll Never Miss The Water
TTITLE21=L.C. Williams - Hole In The Wall
TTITLE22=L.C. Williams - Boogie All The Time
TTITLE23=L.C. Williams - Strike Blues
TTITLE24=L.C. Williams - You Can't Take It With You Baby
TTITLE25=L.C. Williams - So Sorry
TTITLE26=L.C. Williams - The Lazy J
TTITLE27=L.C. Williams - Fannie Mae
EXTD=
EXTT0=
EXTT1=
EXTT2=
EXTT3=
EXTT4=
EXTT5=
EXTT6=
EXTT7=
EXTT8=
EXTT9=
EXTT10=
EXTT11=
EXTT12=
EXTT13=
EXTT14=
EXTT15=
EXTT16=
EXTT17=
EXTT18=
EXTT19=
EXTT20=
EXTT21=
EXTT22=
EXTT23=
EXTT24=
EXTT25=
EXTT26=
EXTT27=
PLAYORDER=
